# xmcd
#
# Track frame offsets: 
#        150
#        12662
#        24305
#        37605
#        48240
#        67462
#        78762
#        90230
#        98675
#        111525
#        129052
#        146957
#        158107
#        173587
#        186182
#        199120
#        213325
#        240067
#        251745
#        261320
#        276982
#        284777
#
# Disc length: 3975 seconds
#
# Revision: 2
# Processed by: cddbd v1.5.2PL0 Copyright (c) Steve Scherf et al.
# Submitted via: ExactAudioCopyFreeDBPlugin 1.0
#
DISCID=340f8516
DTITLE=Nina Simone - Sings The Blues (1967) - 'Nuff Said (1968)
DYEAR=2001
DGENRE=Vocal
TTITLE0=Do I Move You
TTITLE1=Day And Night
TTITLE2=In The Dark
TTITLE3=Real Real
TTITLE4=My Man's Gone Now
TTITLE5=Backlash Blues
TTITLE6=I Want A Little Sugar In My Bowl
TTITLE7=Buck
TTITLE8=Since I Fell For You
TTITLE9=House Of The Rising Sun
TTITLE10=Blues For Mama
TTITLE11=In The Morning
TTITLE12=Sunday In Savannah
TTITLE13=Backlash Blues
TTITLE14=Please Read Me
TTITLE15=Gin House Blues
TTITLE16=Why? (The King Of Love Is Dead)
TTITLE17=Peace Of Mind
TTITLE18=Ain't Got No - I Got Life
TTITLE19=I Loves You Porgy
TTITLE20=Take My Hand Precious Lord
TTITLE21=Do What You Gotta Do
EXTD=
EXTT0=
EXTT1=
EXTT2=
EXTT3=
EXTT4=
EXTT5=
EXTT6=
EXTT7=
EXTT8=
EXTT9=
EXTT10=
EXTT11=
EXTT12=
EXTT13=
EXTT14=
EXTT15=
EXTT16=
EXTT17=
EXTT18=
EXTT19=
EXTT20=
EXTT21=
PLAYORDER=
